<?xml version="1.0" encoding="utf-8"?>
<!-- Generator: Adobe Illustrator 24.0.0, SVG Export Plug-In . SVG Version: 6.00 Build 0)  -->
<svg version="1.1" id="Layer_1" xmlns="http://www.w3.org/2000/svg" xmlns:xlink="http://www.w3.org/1999/xlink" x="0px" y="0px"
	 viewBox="0 0 864 864" style="enable-background:new 0 0 864 864;" xml:space="preserve">
<g>
	<path d="M615.9,302.7c10.6,9.9,22.3,18.2,35.4,24.5c7.3,3.5,15,5.9,23.2,6.5c11.7,0.9,23-1,33.9-5.3c3.7-1.5,7.3-3.2,11-4.8
		c-0.1-0.1-0.1-0.3-0.2-0.4c-0.3,0.1-0.7,0.1-1,0.2c-5.9,1.6-12,2.4-18,2.8c-6.6,0.5-13.2,0.3-19.8-0.3c-7-0.7-14-2-20.5-4.6
		c-18.6-7.6-35-18.5-49.2-32.8c-0.5-0.5-0.9-1-1.5-1.8c3.1,1.5,5.9,2.8,8.7,4c11.8,5.3,24.1,8.5,37,9c10.3,0.3,20.6,0.2,30.8-1.3
		c1.8-0.3,3.6-0.6,5.4-0.9c1.7-0.3,3.4-0.7,5.4-1c-0.5-0.3-0.7-0.4-0.9-0.5c-10.9-3.1-21-8-30.8-13.4c-16.7-9.3-29.5-22.6-39.3-39
		c-0.3-0.5-0.6-1.1-0.9-1.7c9.1,9.8,15.7,15.5,23.7,20.1c8.4,4.8,24.9,10.9,29.1,10.6c-16.1-7-26.4-19.2-32.5-35.3
		c9.2,3.7,18.7,6.3,29.1,6.8c-24.6-14.6-44.8-33.9-66.5-51.8c3.1-1.2,6-1.3,8.8-1.4c8.6-0.2,16.7,1.9,24.2,6.3
		c4.5,2.6,8.8,5.5,13.2,8.3c0.5,0.3,0.9,0.5,1.4,0.8c-0.1-0.6-0.5-1-0.8-1.3c-11.1-10.1-22-20.4-33.2-30.4
		c-11.1-9.8-22.9-18.9-36-26.1c-0.3-0.2-0.6-0.4-1-0.7c6.3-2.7,12.8-3.9,19.4-4c6.6-0.1,13,1.2,19.3,3.4c-0.1-0.3-0.2-0.5-0.4-0.7
		c-9.8-8.1-19.6-16.2-30-23.5c-11.7-8.1-23.7-15.8-36.6-21.9c-14.3-6.8-29.2-12-45.2-12.8c-7.5-0.4-14.8,0.3-22,2.5
		c-11.3,3.4-20.9,9.2-28,18.9c-0.2,0.2-0.4,0.3-0.7,0.6c-0.3-0.5-0.5-0.9-0.7-1.3c-4.8-9.9-10.4-19.5-17.1-28.2
		c-5-6.4-7.9-13.7-9.4-21.6c-0.6-3.2-1.2-6.5-1.9-10.1c-0.4,2.8-0.8,5.1-1.1,7.4c-1.3,8.6-4.1,16.5-9.4,23.4c-7,9.2-13,19-18,29.5
		c-0.1,0.3-0.4,0.6-0.6,0.9c-0.2-0.3-0.4-0.4-0.5-0.6c-5.8-8.2-13.7-13.8-23.1-17.3c-13.3-5-26.8-5.1-40.6-2.2
		c-11.9,2.6-23.1,7.2-33.9,12.7c-21.6,10.9-40.9,25-59.7,40.1c-0.9,0.7-1.8,1.5-2.7,2.3c-0.8,0.7-1.6,1.4-2.5,2.1
		c13.2-5.3,26.2-4.6,39.6,0.4c-1.2,0.8-2,1.3-2.8,1.8c-9.5,5.9-19,11.8-27.4,19.2c-13.6,12.1-27,24.6-40.4,36.9
		c-0.3,0.3-0.6,0.7-1.1,1.4c4.7-3,8.9-5.6,13.1-8.3c6.9-4.3,14.3-7.1,22.5-7.7c4.1-0.3,8.1,0,12.7,1.1c-21.3,18.7-42,37.3-66.4,52.1
		c10.6-0.6,20.1-3.3,29.7-7.4c-6.6,16.8-17,29.4-33.5,36.4c10.3-2.1,20-6,29.2-10.9c9.3-4.9,16.5-12.5,23.5-20.1
		c0.1,0.3,0,0.5-0.1,0.7c-7.2,12.3-16.4,23-27.7,31.7c-12.6,9.7-26.9,16-41.8,21.2c-0.6,0.2-1.2,0.4-1.9,0.6c0,0.2,0,0.3,0,0.5
		c6.1,0.8,12.2,1.9,18.3,2.3c7.3,0.5,14.7,0.6,22,0.4c4.7-0.1,9.4-0.7,14-1.5c11.1-2,21.7-5.8,31.7-10.9c0.2-0.1,0.5-0.2,0.9-0.3
		c-0.1,0.3-0.1,0.5-0.2,0.6c-0.5,0.6-1.1,1.2-1.6,1.8c-8.5,8.6-18,16.1-28.3,22.3c-8.6,5.2-17.6,9.7-27.5,12.2
		c-6.9,1.7-13.9,2.5-20.9,2.7c-7.8,0.2-15.6-0.3-23.2-1.8c-2.1-0.4-4.3-0.9-6.9-1.5c0.6,0.5,0.8,0.6,1,0.7c0.6,0.3,1.1,0.7,1.7,1
		c8.7,4.3,17.6,7.6,27.3,8.6c10.2,1.1,20.3,0.4,30-3.1c12.6-4.5,23.7-11.6,34-20c8.3-6.8,15.5-14.6,23.1-22.1c0.4-0.4,0.7-0.7,1.1-1
		c0,0.1,0.1,0.1,0.1,0.2c-1.4,2.2-2.8,4.4-4.2,6.5c0.1,0.1,0.2,0.2,0.3,0.2c0.7-0.6,1.4-1.1,2.4-1.9c-0.3,0.7-0.5,1.1-0.8,1.7
		c1.2-0.7,2.2-1.2,3.2-1.7c0.1,0.1,0.2,0.2,0.2,0.3c-0.4,0.7-0.8,1.4-1.3,2.4c1.9-1.2,3.5-2.1,5-3.1c0.1,0.1,0.2,0.2,0.3,0.4
		c-2,2.2-3.9,4.5-5.9,6.7c2-1,3.8-2.2,5.6-3.4c1-0.7,2.1-1.3,3.2-2c0.8-0.5,1.5-0.4,2.2,0.6c-1.9,2.4-3.8,4.7-5.7,7.1
		c0,0.1,0.1,0.2,0.1,0.3c1.6-0.7,3.2-1.4,4.9-2.2c0.1,0.7,0.2,1.4,0.4,2.3c-0.7,0.6-1.5,1.3-2.3,2.1c-0.9,0.8-1.8,1.7-2.7,2.6
		c-1.1,1.2-2.1,2.4-3.3,3.5c-0.9,0.9-2,1.6-3,2.3c0.1,0.2,0.1,0.3,0.2,0.5c4.3-2.5,8.9-2.8,13.5-2.9c0,0.2,0.1,0.3,0.1,0.5
		c-0.6,0.5-1.1,1-1.7,1.5c0.1,0.1,0.1,0.2,0.2,0.3c1.6-0.5,3.3-1.1,4.9-1.6c0.1,0.8,0.2,1.5,0.3,2.3c1-0.2,1.8-0.3,2.9-0.5
		c-2.5,3.1-5.4,5.1-8.6,7.2c3.1,0.3,5.9,0.5,8.8,0.7c0,0.3,0,0.4-0.1,0.5c-0.6,1.2-1.2,2.3-1.9,3.5c-3.9,6.8-8.3,13.2-14.5,18.2
		c-11.9,9.6-25.7,14.3-40.8,15.1c-6.2,0.4-12.5,0.1-18.7,0c-4.3-0.1-8.5-0.6-12.8-0.9c6.5-1.1,12.9-2.3,19.1-4.4
		c6.3-2.1,12.3-4.9,18-8.3c6.5-3.9,13.9-9.3,15.9-11.8c-8.5,5.8-17.2,10-26.5,13.1c-9.3,3.1-18.8,5.2-28.5,6
		c12-2.5,29.3-10.7,34.9-16.7c-0.6,0.3-1,0.5-1.4,0.7c-13.4,7.8-27.6,13.7-43.2,15.5c-6.1,0.7-12.2,1-18.2-0.1c-2-0.4-4-0.9-6.1-1.3
		c-0.1,0.1-0.1,0.3-0.2,0.4c4.9,2.4,9.6,5,14.6,7.1c11.3,4.8,23.3,7.3,35.8,8.3c-0.5,0.4-0.7,0.6-0.9,0.7c-3.3,2.1-6.7,4-9.8,6.3
		c-7.7,5.4-13.4,12.5-16.3,21.6c-1.5,4.6-2.4,9.4-2.8,14.2c-0.2,2.3-0.2,4.6-1,6.7c-5.5,15.3-9.7,30.9-12.9,46.8
		c-0.4,1.9-0.7,3.8-1.1,6c2.8-4.4,5.4-8.5,8.1-12.6c2.7-4,5.6-7.7,9.3-10.8c0,0.6-0.2,1.1-0.3,1.6c-4.1,12.9-6.7,26-7.6,39.5
		c-0.8,11-0.8,22,0.3,33c0.7,6.9,1.4,13.7,2.4,20.6c1.5,9.6,3.3,19.2,5.1,28.8c2.9,15,6.1,29.9,10.6,44.5c0.9,2.7,1.8,5.5,2.7,8.2
		c-0.1-2.9-0.6-5.7-0.9-8.5c-1.1-9.6-2.3-19.1-3.2-28.7c-0.9-9.9-1.7-19.8-2-29.7c-0.5-15-0.5-30-0.6-45c-0.1-9.8,0.6-19.5,1.7-29.3
		c1-9.2,2.8-18.3,5.8-27.1c3.7-11.1,9.3-21.1,17.4-29.6c5.8-6.1,12.8-10.8,20.1-14.9c17.7-9.9,35.5-19.6,52.2-31.2
		c0.2-0.1,0.5-0.2,1.1-0.4c-0.3,0.6-0.4,0.9-0.6,1.1c-2.5,3.6-4.9,7.1-7.5,10.7c-0.9,1.2-1.5,2.5-1.7,4c0,0.1,0.1,0.2,0.1,0.3
		c0.3-0.1,0.5-0.1,0.9-0.2c-0.3,0.7-0.5,1.2-0.8,1.8c1.4-0.8,2.5-1.9,3.7-2.9c1.1-0.9,1.7-2.5,4-2.8c-1.3,2.7-2.1,5.1-3.5,7.2
		c-2.2,3.5-4.7,6.8-7,10.1c-0.4,0.6-0.8,1.2-1.2,1.8c4.7-3.3,7.5-8.4,12.8-11c-1.1,3.6-3.4,6.6-5.4,9.6c0.5,0.3,0.9,0.6,1.4,0.9
		c-0.5,0.9-0.8,1.6-1.4,2.8c1.6-0.8,2.8-1.5,4.1-2.1c1.2-0.5,2.2-1.9,4-1.2c-0.9,3.6-5,4.1-6.6,6.9c2.7-1.4,5.3-2.8,7.9-4.3
		c0.9-0.5,1.4-0.3,2.3,0.3c-2.6,2.9-5.2,5.7-7.8,8.5c2.9-0.8,5.8-1.6,8.8-2.5c-0.1,0.6-0.4,0.8-0.7,1.1c-5.2,4.2-10,8.8-14.4,14
		c-11.2,13.3-19.9,28-26.5,44c-7.2,17.3-12.3,35.1-14.7,53.8c-1.1,8.3-1.6,16.5-1.4,24.9c0.1,7.9,0.9,15.7,1.9,23.5
		c1.3,10.2,3.5,20.3,6.5,30.1c1.8,5.6,3.9,11.2,5.9,16.7c-2.8-3.8-5.7-7.6-7.5-12c-2.1-5.2-4.2-10.4-5.9-15.7
		c-2.4-7.4-4.6-14.9-6.7-22.3c-1-3.7-1.5-7.6-2.2-11.4c0.9,10.6,1.3,21.2,4.1,31.6c-1.1-2.3-2.1-4.6-2.9-7
		c-5.5-16.7-7.6-33.9-7.9-51.4c-0.2-12.8,1.1-25.5,3.9-38.1c3.8-17.3,10-33.7,19.4-48.9c0.2-0.3,0.3-0.7,0.4-1
		c-0.5,0.2-0.8,0.5-1.1,0.9c-4.6,6.1-8.9,12.4-12.5,19.2c-8.5,15.7-13,32.7-15.8,50.1c-2,12.2-2.7,24.5-2.6,36.9
		c0,0.4-0.1,0.7-0.1,1.1c-1.8-12.7-2.7-25.4-1.8-38.3c0.9-12.8,3.5-25.2,8-37.3c-0.5,0.4-0.8,0.9-1,1.5c-4.3,8.9-7.8,18-10.4,27.6
		c-4.9,18.4-8.6,37.2-12.3,55.9c-0.5,2.3-0.7,4.7-1.1,7.1c0.1,0,0.2,0,0.3,0c1.3-4.9,2.6-9.8,3.9-14.6c0.6,0.9,0.8,1.7,1.1,2.5
		c3.3,12.4,8.1,24.2,13.5,35.8c13.4,28.7,32.3,53.1,57,73c16,12.9,33,24.4,50.8,34.5c1,0.6,2,1.1,3,1.7
		c-5.7-6.2-10.7-12.8-15.2-19.9c-4.5-7.2-8.1-14.8-11.2-22.7c-2.6-6.9-5.8-20.3-5.3-24.2c8.9,18.6,19.8,35.7,32.6,51.8
		c12.8,16.1,27.8,29.9,44.2,42.3c-5.4-6.2-10.3-12.8-14.9-19.6c-4.5-6.8-8.7-13.8-11.4-21.5c0.4,0.2,0.7,0.4,0.9,0.7
		c5.8,7.3,12.3,14.1,19.4,20.2c6.8,5.9,13.9,11.6,20.8,17.4c8.3,7,16.2,14.5,22.9,23.2c0.3,0.4,0.7,0.8,1,1.2c0.1-0.6-0.1-1-0.3-1.3
		c-4.8-7.8-9.5-15.5-14.3-23.3c-5.4-8.7-10.8-17.3-16.2-26c-0.4-0.6-0.7-1.3-1-2c5.9,6.6,11.5,13.3,17,20.1
		c8.7,10.8,16.8,21.9,23.2,34.2c7.2,13.7,12.7,28.1,15,43.5c0.8,5.6,1.6,11.3,2.4,17.1c0.1-0.4,0.3-0.6,0.3-0.9
		c0.1-0.6,0.2-1.2,0.3-1.7c1.3-7.8,2.2-15.7,3.9-23.5c4-18,12.1-34.2,22.4-49.4c7.8-11.5,16.6-22.3,25.2-33.2
		c0.9-1.2,1.8-2.3,2.8-3.4c0.9-1.1,1.9-2.3,2.8-3.4c-9.8,18.3-22,35.1-31.8,53.4c0.4-0.3,0.8-0.6,1.1-1c4.1-5.4,8.5-10.5,13.6-15
		c7.1-6.3,14.2-12.5,21.5-18.6c9.7-8.1,18.9-16.5,26.9-26.4c0.6-0.7,1.2-1.5,1.8-2.2c0.1,0.1,0.2,0.2,0.4,0.3
		c-6.4,15.7-16.3,29.2-27.2,42.2c5.6-4.5,11.3-9,16.6-13.8c25.1-22.6,45-49.1,59.5-79.6c0.3-0.6,0.6-1.2,0.9-1.7
		c0.2,0.1,0.3,0.2,0.5,0.2c-3.4,25.8-14.6,48-31.8,67.3c19.3-11.1,37.8-23.3,55-37.4c17.7-14.5,32.7-31.3,44.5-50.9
		c10.8-18,19.3-37.1,25-57.3c0.2-0.7,0.4-1.5,0.6-2.2c0.2,0,0.3,0,0.5,0c1.8,7.1,3.5,14.1,5.2,21.2c-0.3-3.4-0.6-6.9-1.3-10.2
		c-3.5-16.6-6.8-33.2-10.6-49.7c-2.6-11.4-6-22.5-10.9-33.2c-1.1-2.4-2.4-4.8-3.5-7.2c-0.2,0.5-0.1,0.8,0,1.1
		c6.2,14.6,8.7,30,8.7,45.8c0,6.5-0.5,13.1-0.9,19.6c-0.3,4-0.9,8-1.3,12c-0.2-1.1-0.2-2.2-0.2-3.3c0.2-8.8-0.2-17.5-1.1-26.2
		c-1.1-11.4-3.2-22.7-6.4-33.7c-4.7-16.7-12.8-31.8-23.4-45.5c-0.2-0.3-0.5-0.5-0.8-0.7c13.3,21.8,20.6,45.5,22.9,70.8
		c2.1,22.8-3.4,65.9-9.6,73.2c0.6-3.8,1.4-7.9,1.9-12.1c0.6-4.1,0.9-8.2,1.4-12.2c-0.9,2.5-1.4,5-2,7.5c-2.2,8.9-5.3,17.4-8.4,26
		c-1.4,3.9-2.6,8-4.5,11.7c-1.9,3.7-4.4,7-6.7,10.5c-0.1-0.9,0.2-1.6,0.5-2.3c7.4-18.8,11.9-38.3,13-58.4
		c0.8-14.8,0.1-29.7-2.6-44.4c-4.1-22.2-11.5-43.2-22.6-62.9c-7.4-13.2-16.4-25.3-27.9-35.3c-1.5-1.3-3-2.5-4.4-3.8
		c0-0.1,0.1-0.2,0.1-0.3c2.3,0.6,4.6,1.2,7.3,2c-1.2-1.1-2.1-1.9-3.1-2.9c1.2-0.5,2.1-0.8,3-1.2c-0.9-1.5-3-2.3-3.2-4.8
		c1.2,0.5,2,0.9,2.9,1.3c0.1-0.1,0.2-0.3,0.3-0.4c-0.7-0.5-1.4-1-2.2-1.5c0.6-0.7,1-1.1,1.4-1.5c2.2,1.3,4.2,2.4,6.3,3.6
		c0.1-0.1,0.2-0.2,0.3-0.3c-1.3-2.9-2.6-5.8-3.9-8.7c0.8-0.9,1.6-1.7,2.4-2.7c2.1,2,4.2,4.1,6.3,6.1c0.1-0.1,0.2-0.2,0.4-0.3
		c-0.6-0.7-1.1-1.5-1.7-2.2c-2.1-3.2-4.2-6.4-6.4-9.5c-0.8-1.1-0.5-2,0.3-3c1.6,1.4,3.2,2.7,4.8,4c0.1-0.1,0.2-0.2,0.2-0.3
		c-1.7-2.3-3.4-4.6-5-7c0.1-0.1,0.2-0.1,0.3-0.2c1.6,1.5,3.2,3,4.8,4.5c-1.3-2.6-2.7-5-4.2-7.3c-1.5-2.3-3.2-4.5-4.8-6.8
		c12.4,8.6,25.3,16.2,38.4,23.5c7.6,4.2,15.3,8.4,22.7,13c11.1,6.9,19.5,16.5,25.2,28.3c5.1,10.4,8.2,21.5,9.6,33
		c1.1,8.4,1.8,17,2.1,25.5c0.6,15.4,0.7,30.9,0,46.3c-0.2,4.1-0.2,8.2-0.5,12.3c-0.6,9.6-1.2,19.2-2,28.8c-0.8,8.7-1.9,17.4-2.9,26
		c-0.3,2.5-0.7,5.1-1,7.6c0.4-0.4,0.6-0.9,0.8-1.4c4.6-14.1,8.1-28.5,11.1-43c2.2-11,4.3-22.1,6-33.1c1.5-9.8,2.7-19.7,3.6-29.5
		c0.8-9.3,0.5-18.7-0.2-28c-0.9-12.9-3.4-25.4-7.2-37.8c-0.3-1-0.6-2.1-1-3.1c0.1-0.1,0.3-0.1,0.4-0.2c7,6.9,12.3,15,17.3,23.4
		c-0.3-1.2-0.6-2.4-0.8-3.6c-3.5-17-7.8-33.7-14.2-49.9c-0.4-0.9-0.6-2-0.8-3c-0.4-2.8-0.5-5.6-1-8.3c-1.5-9.9-5.5-18.7-12.8-25.8
		c-4.5-4.3-9.5-7.8-14.9-10.8c-0.4-0.2-0.7-0.5-1.3-0.9c26.7-2.6,40.1-8.9,51.6-16.1c-0.8,0.2-1.2,0.3-1.6,0.4
		c-2.4,0.5-4.7,1.2-7.1,1.4c-8.6,1-17.2,0-25.6-2c-11.3-2.7-21.9-7.5-32.1-13c-0.6-0.3-1.2-0.6-1.8-0.9c-0.1,0.1-0.1,0.3-0.2,0.4
		c9.8,7,20.3,12.6,32.1,15.5c-18.9-2.4-36.7-7.7-52.7-18.4c3.4,3.3,7.1,6.2,11.1,8.7c4,2.5,8,5,12.2,7c4.3,2,8.8,3.6,13.4,5
		c4.4,1.3,8.9,2.2,13.4,3.3c-7.3,0.7-14.5,1.1-21.8,1.3c-8,0.1-16-0.5-23.8-2.8c-9.7-2.9-18.6-7.2-26.2-14
		c-5.5-4.9-9.4-10.9-13-17.1c-0.7-1.1-1.3-2.3-1.9-3.5c2.6-0.3,5.1-0.5,7.6-0.7c-2.5-2-4.8-3.8-7-5.6c0.7-1.5,1.6-1.4,2.6-1.1
		c0.2-0.6,0.3-1,0.4-1.5c0.5,0,0.9,0,1.6,0c-0.8-0.8-1.5-1.3-2.1-1.9c1.9-1.1,3.3,0.1,4.9,0.6c1.6,0.5,3.2,1.1,4.8,1.7
		c0.1-0.1,0.1-0.3,0.2-0.4c-1.5-0.9-2.9-1.7-4.4-2.6c0.1-0.2,0.2-0.4,0.3-0.6c0.7,0.2,1.5,0.2,2.2,0.5c2,0.8,4,1.6,5.9,2.5
		c1.2,0.6,2.2,0.5,3.1-0.7c-4.1-2.9-8.1-5.8-11.1-9.9c0.4-0.4,0.8-0.7,1-1c2.3,1.4,4.6,2.7,6.8,4.1c0.2-0.2,0.4-0.5,0.6-0.7
		c-2-1.7-4-3.4-6-5.1c0.5-0.8,0.8-1.2,1.2-1.7c1,0.8,2.1,1.5,3.1,2.2c-1.2-1.3-1.6-2.8-1.9-4.6c1.2,0.5,2.3,1,3.3,1.4
		c-0.1-1.1-0.1-2.1-0.2-3.3c0.7,0.4,1.2,0.7,1.6,0.9c0.5-0.4,0.9-0.8,1.4-1.2c1.4,0.9,2.9,1.8,4.6,2.9c-2-2.8-3.7-5.2-5.4-7.6
		c0.7,0.1,1.1,0.4,1.4,0.8C605.5,292.6,610.6,297.7,615.9,302.7z M633.2,263.9c6,4.4,11.6,9.1,17.4,13.7c-0.1,0.1-0.2,0.3-0.3,0.4
		c-6.3-2.5-12.7-5.1-19-7.6c-0.1,0.1-0.1,0.3-0.2,0.4c5.2,5.2,11,9.6,17.2,13.5c6.2,3.9,13,6.8,20.1,8.9c-4.6,0.2-9.1,0.4-13.7,0.6
		c-10.6,0.5-20.6-1.8-29.7-7.3c-3.5-2.1-6.7-4.4-10.1-6.7c-1.4-1-2.7-2.1-3.9-3.3c4,1.9,8.1,3.8,12.1,5.6c0.1-0.1,0.2-0.3,0.2-0.4
		c-4.5-2.6-8.7-5.5-12.3-9.3c5.6,3.1,11.2,6.2,16.7,9.4c0.1-0.1,0.1-0.2,0.2-0.3c-6.5-8.8-12.9-17.7-19.4-26.5
		c4.7,2.5,8.3,6.4,12.2,10c-2.5-3.7-4.9-7.4-7.4-11C620.2,257.1,627.2,259.5,633.2,263.9z M255.2,170.7c-0.3,0.1-0.7,0.1-1.2-0.1
		c1.5-1,3-2,4.6-2.9c6.5-3.9,12.9-7.9,20-10.7c6.9-2.8,14.2-3.7,21.6-3.5c5.7,0.2,11.4,1,16.9,2.8c0.2,0.1,0.4,0,1.1-0.1
		c-12.4-5.8-24.7-7.2-37.6-3.5c6.4-4.3,13.2-7.9,20.5-10.3c5.7-1.9,11.5-3.2,17.4-3.5c9.7-0.6,18,2.9,25.1,9.4
		c6.7,6.1,11.9,13.4,16.7,21c6.7,10.5,12.3,21.6,16.9,33.1c0.2,0.6,0.5,1.2,0.8,1.8c0.1,0.1,0.2,0.2,0.4,0.4c0-0.4,0.1-0.7,0-1.1
		c-2.7-10.5-5.2-21.1-9.2-31.2c-4.6-11.4-10.5-22-19.6-30.5c-9.1-8.5-19.8-13.6-32-15.4c-15.2-2.2-30-0.8-44.6,3.8
		c-0.2,0.1-0.4,0-1.1,0.1c1.6-1,2.8-1.8,4-2.6c6.3-4.2,12.7-8.1,19.5-11.6c7.1-3.6,14.6-5.7,22.5-6.4c5.8-0.5,11.6-1,17.4-0.9
		c10.3,0.2,20.2,2.4,29.4,7.4c1.5,0.8,2.9,1.7,4.5,2.7c-1.9-2.4-8-6.7-12.9-9.1c-4.8-2.3-9.9-3.8-15-4.9c-5.2-1.1-10.5-1.3-15.8-1.5
		c1.9,0,3.9,0,5.8,0c0.1-0.2,0.1-0.4,0.2-0.5c-0.8-0.4-1.7-0.9-2.7-1.4c3-1.4,6.4-0.6,9.5-1.8c-0.5-0.1-0.9-0.1-1.9-0.3
		c8.8-1.9,17.1-2.7,25.5-0.9c8,1.8,14.2,6.4,19.6,12.4c7,7.8,10.9,17,12.9,27.1c1.4,6.8,2.3,13.8,3.2,20.7c1,7.6,1.9,15.1,2.8,23.3
		c0.2-0.8,0.2-1,0.3-1.3c0.3-8.3,0.4-16.6,0.9-24.9c1.1-16.3,3.5-32.4,9.2-47.9c4-10.7,9.6-20.6,15.5-30.4c0,0,0.1,0,0.4-0.1
		c0,0.4,0.1,0.8,0.1,1.2c0,9.8,0.6,19.5,1.7,29.3c1,9.3,1.9,18.6,2.9,27.8c0,0.3,0.1,0.6,0.4,0.8c1.1-9.8,2.2-19.5,3.2-29.3
		c1.1-9.9,1.7-19.8,1.5-29.9c0.3,0.2,0.5,0.3,0.6,0.4c5.3,9.2,10.8,18.2,14.6,28.1c4,10.2,6.5,20.8,8.2,31.7
		c1.6,10.3,2.4,20.7,3,31.1c0.2,4.5,0,9.1,0,13.7c0.2,0,0.3,0,0.5,0c0.5-4.3,0.9-8.5,1.4-12.8c1.2-11.8,2.4-23.5,5.3-35
		c2.4-9.4,6.2-18.1,13-25.1c4.6-4.7,10-8.4,16.4-10.3c1-0.3,1.9-0.4,2.9,0.3c0.5,0.3,1.4,0.3,2.1,0.2c3.3-0.3,6.6-0.7,9.8-1
		c0.4,0,0.8,0.1,1.1,0c4.5-1.4,8.7,0.5,12.9,1.3c2.6,0.5,5.2,1.4,7.8,2.1c0.8,0.2,1.5,0.5,2.7,0.9c-1.9,0-3.4,0-4.8,0
		c0,0.1,0,0.3,0,0.4c1.4,0.1,2.8,0.2,4.1,0.3c-16.2-0.4-30.8,4-43.2,14.7c0.3-0.1,0.7-0.2,1-0.3c8.6-5.4,18-8,28-8.9
		c10.8-0.9,21.4,0,32,2.3c5.8,1.3,11.2,3.6,16.3,6.5c6.1,3.5,12,7.3,18,11c0.3,0.2,0.6,0.5,0.8,1c-2.5-0.6-4.9-1.2-7.4-1.8
		c-10.4-2.5-21.1-3.3-31.7-2.6c-12.9,0.9-24.7,5-34.9,13c-7.6,6-13.2,13.6-17.7,22c-5.3,10-9,20.6-11.6,31.5
		c-1,4.1-1.8,8.1-2.3,12.3c0.3-0.7,0.7-1.4,0.9-2.1c5.2-14.9,13.1-28.4,21.8-41.4c3.6-5.4,7.8-10.3,13-14.3
		c7.6-5.9,16.1-8.5,25.7-7.6c10.3,1,19.9,4.2,29,9.1c0.6,0.3,1.1,0.7,1.6,1.1c0.1,0.1,0,0.6-0.1,1c1.7,0.7,3.5,1.4,5.4,2
		c0,0.1-0.1,0.2-0.1,0.2c-4.2-0.6-8.4-1.5-12.6-1.8c-4.3-0.4-8.5,0.3-12.7,1.2c-4.2,0.9-8.3,2.3-12.1,4.4c1.9-0.5,3.8-1.1,5.7-1.5
		c13.2-2.9,26-2.1,38.1,4.2c6.4,3.4,12.7,7.1,19,10.7c0.4,0.2,0.8,0.6,1.2,0.9c0,0.1-0.1,0.1-0.1,0.2c-2.7-0.7-5.3-1.4-8-2
		c-11.1-2.3-22.4-3.4-33.7-2.4c-15.9,1.4-29.8,7.5-41.5,18.4c-11.9,11.1-20.8,24.3-27.3,39.2c-0.1,0.1-0.1,0.3-0.4,0.7
		c-2.7-4.9-2.3-10.3-3.3-15.5c-4.8,6.6-9.6,12.9-15.8,18c-1.2-0.6-1.1-1.2-0.5-2.1c1.6-2.1,3.1-4.3,4.6-6.4c0.5-0.8,0.8-1.8,1-2.9
		c-5.3,7.3-11.6,13.6-18.7,19.3c2-3.6,4.1-7.1,6-10.7c1.9-3.6,3.7-7.3,5.2-11.1c-2.4,3.6-4.6,7.4-8.1,10.2c0.1-0.5,0.2-0.9,0.3-1.4
		c0.1-0.4,0.3-0.8,0.5-1.4c-0.6,0.1-1,0.1-1.6,0.2c0.1-0.7,0.2-1.3,0.3-1.9c-0.1-0.1-0.2-0.1-0.3-0.2c-2.1,2.7-4.3,5.4-6.4,8.1
		c-1.5-0.6-1.1-1.5-0.6-2.4c1.7-3.6,3.3-7.2,5-10.8c0.3-0.6,0.5-1.3,0.6-2.1c-3.3,6.1-7,11.9-11.4,17.3c-0.6-0.3-1.2-0.6-2-1
		c6.3-13.9,11.1-28.3,15.2-43c-0.4,0.6-0.7,1.3-1.1,1.9c-2.2,4.2-4.5,8.4-6.7,12.7c-5.8,11.7-12.9,22.6-20.4,33.2
		c-1.7,2.4-3.6,4.6-5.7,6.7c-2.1,2.2-3.5,2.1-5.6-0.1c-2.2-2.4-4.3-4.9-6.2-7.4c-7.4-10-13.9-20.6-19.5-31.7
		c-2.2-4.5-4.6-8.9-6.9-13.3c-0.3-0.6-0.7-1.3-1.2-1.8c3.9,13.4,8.2,26.6,13.4,39.5c-0.7,0.7-1.4,1.3-2.1,2
		c-2.4-3.4-4.8-6.9-7.2-10.3c-0.1,0.1-0.2,0.1-0.3,0.2c1.6,3.5,3.2,7,4.8,10.4c-1.1,1-1.9,1-2.9-0.1c-1.9-2.3-3.9-4.6-5.8-6.9
		c-0.3-0.4-0.6-0.8-0.8-1.2c-0.2,0.1-0.4,0.3-0.6,0.4c0.9,2,1.8,4.1,2.7,6.2c-0.8,0.6-1.3,0.2-1.6-0.4c-1.1-1.8-2.1-3.5-3.2-5.3
		c-0.5-0.8-0.9-1.7-1.7-2.4c0.8,2.2,1.6,4.5,2.5,6.7c0.4,0.9,0.7,1.8-0.7,2.7c-2.1-3.7-4.3-7.4-6.4-11.1c0.5,2.9,1.9,5.5,3.1,8.1
		c1.3,2.6,2.9,5.1,3.1,8.1c-0.5-0.3-1.2-1-1.7-1c-1,0.2-1.3-0.5-1.8-1c-3.6-4.3-7.2-8.7-10.9-13.1c0.4,0.9,0.9,1.9,1.3,2.9
		c0.5,0.9,1,1.9,1.3,2.9c-0.9-1-2-1.9-2.7-3.1c-0.6-1-1.3-1.6-2.5-1.9c-0.5-0.1-1-0.8-1.4-1.3c-1.3-2-2.6-4.1-4-6.4
		c-1.8,4.8-1.5,10-3.7,14.9c-0.6-1.2-1.1-2.1-1.6-3c-5.8-11.4-12.5-22.2-21.3-31.4c-8.6-9-18.5-16.1-30.4-20.1c-6-2-12.3-3-18.6-3.4
		C280.2,165.5,267.6,167.4,255.2,170.7z M528.8,277.6c-0.1,0.2-0.2,0.3-0.3,0.5c-2.6-1.3-5.2-2.7-7.8-4c-0.1,0.1-0.1,0.2-0.2,0.3
		c6.5,5.9,13,11.8,19.6,17.8c-1.5-0.6-3-1.2-4.4-1.9c-1.4-0.7-2.9-1.4-4.3-2.1c-0.1,0.1-0.2,0.3-0.2,0.4
		c11.2,7.2,22.3,14.3,33.6,21.6c-2.1,5.6-4.1,11.1-6.1,16.5c-0.7,1.8-1.3,3.6-2.1,5.3c-0.6,1.3-0.5,2.3,0.2,3.5
		c3.8,6,7.7,12,11.5,18c0.8,1.2,1.6,2.5,2.6,3.9c-1.1,1.1-2.2,2.2-3.3,3.2c-1.6,1.5-3.3,2.9-4.9,4.4c-1.3,1.2-1.9,2.7-2.1,4.5
		c-0.8,10.5-1.7,20.9-2.5,31.4c-0.3,4.2-0.7,8.4-1,12.5c0,0.2,0,0.4,0,0.7c-0.3,3.2-1,3.9-4.2,4.2c-1.9,0.2-3.8,0.2-5.7,0.2
		c-2.4,0-4.2,1-5.5,3.1c-3.3,5.5-6.6,10.9-9.9,16.4c-3.2,5.3-6.3,10.6-9.5,15.9c-0.2-0.1-0.4-0.2-0.6-0.2c0.5-1.6,1-3.3,1.6-4.9
		c0.3-1,0.8-1.8,0.5-3c-0.2-0.7,0.3-1.5,0.6-2.3c3.1-7,6.3-14.1,9.5-21.3c-0.4,0.5-0.8,0.9-1,1.3c-2.2,3.7-4.4,7.5-6.5,11.3
		c-0.9,1.6-2.1,2.7-4,3.5c0-2.7,0.8-5.2,1.6-7.6c0.8-2.4,1.5-4.7,2.4-7.5c-3,1.2-2.7,4.4-4.8,6.3c0.1-1,0.1-1.4,0.2-1.8
		c2-5.7,4.9-10.7,9.7-14.5c2.4-1.9,4.9-3.8,7.3-5.7c5.5-4.2,8.2-9.9,8.1-16.8c-0.1-4.3-0.4-8.5-0.6-12.8c-0.1-2.9-0.3-5.9-0.4-9.3
		c-0.6,4-1.1,7.6-1.7,11.2c-0.8,4.4-1.9,8.7-3.9,12.8c-1.5,3.1-3.5,5.8-6.6,7.5c-5.3,2.9-10.1,6.5-14.3,11c-0.1,0.1-0.4,0.2-1,0.6
		c1.4-5.1,4.3-9.1,6.3-13.5c-0.1-0.1-0.3-0.2-0.4-0.3c-1.5,2.2-2.9,4.4-4.4,6.6c-1.4,2.2-3.6,3.7-4.7,6.2c-1.1,2.5-2.5,4.8-3.6,7.3
		c-1.1,2.5-1.9,5.1-3.1,7.6c0.1-1.1,0.1-2.3,0.4-3.4c0.6-2.1,0-3.8-1.7-5.4c-1.2,3.4-1.3,6.7-1.6,10.3c-0.2-0.2-0.4-0.4-0.5-0.6
		c-5.1-9.2-10.2-18.4-15.2-27.6c-1.4-2.5-2.6-5.1-4-7.6c-3.4-6.2-3.9-12.9-2.8-19.7c0.1-0.4,0.1-0.9,0.2-1.3
		c1.1-6.9,5.2-10.5,12.2-10.6c1.9,0,3.8,0,5.7,0c10.1-0.2,17.3-6.6,18.8-16.6c0-0.3,0.1-0.6,0.2-0.9c2.5-0.5,5-1.1,7.7-1.6
		c-2.2,3-2.4,6.6-3.2,10c-1.4,6.4-4.7,11.5-10.7,14.7c3.2-0.9,5.9-2.7,8.1-5.2c2.6-2.9,4.3-6.3,5.3-10c1.6-5.7,4.7-10.6,8.8-14.8
		c2.9-3,5.2-6.6,7-10.4c0.2-0.5,0.4-1,0.3-1.7c-0.4,0.4-0.8,0.8-1.1,1.2c-3.1,3.7-6.7,6.8-10.5,9.7c-4.3,3.2-9.2,3.1-14.2,2.5
		c-5.3-0.6-10.5-1.1-15.8-0.4c-11,1.5-18.1,7.8-22.2,17.8c-2.6,6.2-3.8,12.8-4.5,19.7c-0.4-0.6-0.8-1-1.1-1.4
		c-1.3-2.4-2.8-4.7-4-7.1c-2.6-5.4-2.2-10.5,1.3-15.4c2.7-3.7,5.6-7.2,7.9-11.1c2.9-4.8,5.4-9.9,7.8-15c1.9-3.9,1.4-7.9-0.5-11.7
		c-0.4-0.8-0.8-1.6-1.3-2.3c-3.9-6.2-8.4-12.1-11.2-19c0.5,3.7,1.6,7.2,3.1,10.6c1.2,2.8,2.5,5.6,4,8.3c2.8,5.1,2.7,10-0.1,15.1
		c-3.2,5.9-7.5,10.8-12.1,15.7c-2.8,2.9-5.7,5.8-8.6,8.6c-0.9,0.9-1.2,1.8-0.9,3.1c2,8.6,5.6,16.5,10.5,23.9
		c7.8,11.8,15.7,23.6,23.5,35.5c3.7,5.6,7.5,11.2,10.2,17.5c2.5,5.7,3.6,11.8,4.9,17.8c1,4.9,1.8,9.8,1.8,14.8
		c0,11-5.1,18.7-15.3,22.6c-8.7,3.3-17.7,4.7-27,3.6c-0.4,0-0.7,0-1.1,0.4c3,0.5,5.9,1.2,8.9,1.6c6.9,0.9,13.8,0.7,20.5-1.2
		c4.6-1.3,8.7-3.6,12.1-6.9c2.7-2.6,4-5.8,4.2-9.7c1.1,2.7,1.4,6.2,0.6,8.7c-3.5,10.8-10.5,18.2-21.7,21.1
		c-7.8,2.1-15.7,1.9-23.6,0.2c-0.4-0.1-0.8-0.1-1.3,0c3.1,1.6,6.3,2.4,9.7,3.1c5.8,1.2,11.5,1.4,17.3,0.2c5.4-1.1,10.2-3.6,14.2-7.6
		c0.8-0.8,1.6-1.7,2.7-2.4c-0.1,0.7-0.2,1.5-0.4,2.2c-0.9,3.6-2.5,6.9-4.7,9.9c-6,8-13.6,13.5-23.7,15c-5.2,0.8-10.3-0.2-15.1-2.1
		c-2.9-1.1-5.7-2.4-8.4-3.8c-7.8-3.9-15.6-7.8-23.6-11.8c-0.7-5.3,0.3-10.6,2.7-15.6c1.8-3.6,4-6.8,6.7-9.8
		c3.1-3.5,6.9-5.7,11.3-6.9c0.8-0.2,1.7-0.5,2.5-0.7c6.3-1.4,10.7-5.2,14.1-10.5c4.2-6.6,6.4-13.6,5.8-21.5c-0.3-4.1-1.6-8.9-3.5-12
		c0,4.7-1.4,8.8-3.1,12.8c-2.6,5.9-5.1,7.2-11.5,5.8c-2.3-0.5-4.6-1-6.9-1.4c-4-0.7-7.9,0.3-11.8,1.2c-4.1,0.9-8.2,2.1-12.4,1.5
		c-3-0.4-6.1-1-9-1.8c-5.3-1.4-10.6-1.3-15.8,0.3c-1,0.3-2.1,0.5-3.2,0.7c-3.8,0.7-6.7-0.6-8.6-4.1c-2.3-4.1-4-9.8-4.5-15
		c-0.5,1.5-1.1,3-1.6,4.6c-3,10.8-1.7,20.9,4.9,30.2c3.1,4.3,7,7.3,12.1,8.7c0.6,0.2,1.3,0.4,1.9,0.6c7.6,1.6,13,6.1,17.2,12.4
		c2.6,4,5,8.2,5.7,13c0.4,2.4,0.3,5,0.5,7.4c-0.5,0.3-0.7,0.5-1,0.6c-9.2,4.4-18.4,8.8-27.6,13.2c-3.4,1.6-6.8,3.1-10.5,3.8
		c-6.9,1.3-13.3,0.2-19.4-3.3c-8.2-4.7-14.3-11.2-17.2-20.4c-0.2-0.8-0.4-1.6-0.6-2.3c-0.1-0.3-0.1-0.7-0.2-1
		c2.1,1.8,4.1,3.8,6.3,5.4c4.5,3.4,9.7,5,15.4,5.3c7,0.4,13.7-1,20.3-3.3c0.3-0.1,0.6-0.3,1.3-0.7c-2.7,0.4-5,0.7-7.3,1
		c-7.5,0.8-14.9,0.1-21.8-2.9c-9-3.9-14.5-10.9-17-20.4c-0.2-0.7-0.3-1.4-0.3-2.2c0-1.3,0-2.6,0-4.2c0.4,0.2,0.7,0.3,0.8,0.4
		c0.7,4.8,3.7,8,7.6,10.6c5.1,3.4,10.7,5,16.7,5.7c6.6,0.7,13-0.1,19.5-1.4c0.4-0.1,0.7-0.1,1.1-0.3c0.3-0.1,0.5-0.3,1-0.5
		c-4.9,0.5-9.5,0.5-14.1-0.1c-6.8-0.9-13.4-2.7-19.3-6.4c-6.1-3.8-9.1-9.4-9.7-16.4c-0.7-7.7,1-15,2.4-22.5
		c2.1-10.7,6.9-20,12.9-28.9c8.6-12.6,17.1-25.4,25.5-38.1c4.6-7,7.9-14.7,10.1-22.9c0.4-1.6,0.2-2.7-1-3.7
		c-2.9-2.8-5.9-5.6-8.6-8.5c-3.5-3.9-7-7.8-10.1-11.9c-1.7-2.2-2.8-5-3.9-7.6c-1.3-3-1-6,0.4-9c0.7-1.6,1.5-3.2,2.3-4.7
		c2.8-5.3,4.7-11,5.9-17c-0.2,0.2-0.3,0.5-0.4,0.7c-2.1,5.2-5.2,9.9-8.2,14.6c-1.3,2-2.5,4-3.6,6.1c-2.2,4.2-2.3,8.4-0.4,12.7
		c3.2,7.3,7.4,14,12.3,20.3c1.7,2.1,3.2,4.4,4.6,6.7c2.1,3.4,2.3,7.1,1.2,10.8c-1.3,4.2-3.6,8-6.2,12c-0.3-2.5-0.4-4.7-0.7-6.9
		c-0.8-5.4-1.9-10.7-4.4-15.6c-4-7.6-9.8-13-18.4-14.8c-4.5-1-9.1-0.8-13.6-0.5c-3.4,0.3-6.9,0.5-10.3,0.8c-3.3,0.2-6.2-0.7-8.9-2.5
		c-4.1-2.8-7.8-6-10.8-10c-0.4-0.5-0.8-1-1.3-1.5c0.6,2.5,1.7,4.8,3.1,6.9c1.7,2.5,3.5,4.9,5.5,7.2c3.2,3.7,5.6,7.7,7.1,12.3
		c1.1,3.4,2.5,6.7,4.9,9.6c2.2,2.7,4.9,4.8,8.2,6.2c0-0.2,0.1-0.3,0-0.3c-6.5-3.6-9.2-9.5-10.4-16.5c-0.4-2.4-1-4.7-1.6-7.2
		c2.1,0.4,4.3,0.8,6.5,1.2c0.6,2.1,1,4.2,1.8,6.2c2.9,7.2,8.5,10.6,16,11.2c3.1,0.3,6.3,0.1,9.5,0.4c3.9,0.4,6.7,2.6,8.2,6.2
		c2.7,7,3.7,14.1,0.8,21.3c-1.6,3.9-3.5,7.8-5.5,11.5c-5.1,9.4-10.3,18.6-15.5,27.9c-0.1,0.2-0.3,0.3-0.5,0.6
		c-0.4-2.8,0.3-5.6-1.2-8.5c-0.4,0.7-0.7,1.2-1,1.8c-0.8-1.5-1.5-2.9-2.2-4.3c-0.5,0.9-1,1.8-1.6,3c-3.9-8.9-8.4-16.9-14.2-24.2
		c0.4,1,0.8,2,1.4,3c1.6,3.1,3.2,6.1,4.9,9.1c0.7,1.3,1.1,2.5,0.9,4c-1-0.9-1.9-1.9-2.9-2.7c-3.3-2.5-6.5-5.1-10-7.2
		c-4.2-2.6-7.1-6-8.9-10.6c-2.4-6.3-3.6-12.8-4.4-19.5c-0.1-0.6-0.1-1.1-0.4-1.7c-0.1,1.7-0.3,3.4-0.4,5c-0.2,5.4-0.5,10.7-0.7,16.1
		c-0.2,6.9,2.9,12.3,8.2,16.5c2.7,2.2,5.5,4.2,8.2,6.4c4.2,3.5,7,7.9,8.9,12.9c0.1,0.4,0.2,0.8,0,1.3c-2.2-1.7-3.1-4.5-5.1-6.4
		c2.7,5.7,4,11.8,5.2,17.9c-0.1,0-0.3,0.1-0.4,0.1c-1-1.9-1.9-3.7-2.9-5.6c-0.1,0-0.1,0.1-0.2,0.1c0.5,1.7,1,3.4,1.5,5
		c-0.1,0-0.2,0.1-0.4,0.1c-1.9-3.3-3.9-6.6-5.8-10c-0.1,0.1-0.2,0.1-0.4,0.2c0.3,0.6,0.6,1.3,0.9,1.9c2.1,4.7,4.2,9.4,6.3,14.1
		c1.2,2.8,1.5,5.7,1.3,8.9c-1.9-3-3.9-6-5.8-9c-4.6-7.4-9.1-14.8-13.6-22.2c-0.6-0.9-1.2-1.8-1.9-2.7c-1.1-1.3-2.4-2-4.2-2.1
		c-2.3-0.1-4.7-0.4-7-0.7c-2.1-0.3-2.5-0.7-2.7-2.8c-0.2-1.8-0.3-3.7-0.5-5.5c-0.6-8.1-1.2-16.3-1.9-24.4c-0.5-5.5-1.1-11-1.6-16.5
		c-0.1-1.6-0.8-2.8-2-3.8c-2.2-1.9-4.3-3.8-6.5-5.7c-1.9-1.7-1.9-1.7-0.5-3.8c3.9-6.1,7.9-12.2,11.7-18.4c2.1-3.3,2-3.3,0.6-7
		c-2.1-5.4-4.1-10.8-6.1-16.3c-0.2-0.5-0.3-1-0.5-1.5c-0.6-2-0.6-2.1,1.1-3.2c9.7-6.4,19.4-12.7,29.2-19c0.7-0.4,1.3-0.9,1.8-1.6
		c-2.4,1.1-4.9,2.1-7.3,3.2c-0.1-0.1-0.1-0.2-0.2-0.3c6.2-5.7,12.4-11.5,19-17.5c-3,1.4-5.6,2.5-8.1,3.7
		c6.1-5.4,12.3-10.5,19.6-14.2c-0.1-0.2-0.1-0.3-0.2-0.5c-5.2,0.5-10.5,0.7-15.7,1.4c-5,0.7-9.7,0.3-14.2-1.8c-3-1.3-5.8-3.1-9-4.8
		c2.7,0.3,4.9,0.6,7.1,0.7c4.9,0.2,9.4-1,13.3-3.9c6.4-4.7,12.7-9.5,19-14.4c4.4-3.4,8.8-6.9,13.1-10.5c1-0.8,1.7-0.8,2.7-0.2
		c14.1,8.5,28.1,17,42.2,25.5c5.2,3.1,8.7,7.5,10.9,13.1c3.2,8.1,5.4,16.4,7,25c0.5,2.6,0.9,5.2,1.4,7.9c1.3-6.4,2.4-12.7,4-18.8
		c1.3-5,3-9.8,4.8-14.6c1.9-5.2,5.4-9.2,10.1-12.1c6.4-4,12.8-8,19.3-11.9c7.8-4.7,15.6-9.4,23.4-14c0.3-0.2,0.6-0.3,1.2-0.6
		c5.6,4.4,11.2,8.9,16.9,13.4c5,3.9,10.1,7.9,15.2,11.7c6,4.5,12.7,5.4,19.9,3.8c0.1,0,0.3,0,0.6,0.1c-6.4,4.8-13,8.1-21.2,6.6
		c-3-0.6-6.1-0.7-9.2-0.9c-1.2-0.1-2.4,0.4-3.6,0.5c-0.5,0-1-0.1-1.5-0.2c-0.8-0.2-1.5-0.5-2.3-0.6
		C515.5,268,522.1,272.8,528.8,277.6z M499.4,347.4c2.2,0.4,4.1-1.1,4.2-3.3c0-0.5-0.1-1-0.2-1.6c2.4-0.8,4.9,1.1,7.3-0.4
		c1.3,2.7,1,5.3-0.5,7.7c-2.4,3.9-5.9,6-10.5,6.4c-2.6,0.2-5.1,0-7.6-0.9c-5-1.9-5.9-6.1-2-9.7c2.2-2.1,4.8-3.5,8.1-3.2
		c-0.3,0.4-0.6,0.8-0.8,1.3C496.6,345.4,497.4,347,499.4,347.4z M486.5,553.8c-1.6-2.1-3.1-4-4.7-6.1c-0.7,5.3-1.3,10.3-1.9,15.3
		c-0.1,0-0.2,0-0.4,0c-0.2-1.1-0.3-2.2-0.5-3.3c-0.1,0-0.2,0-0.3,0c-0.4,2.6-0.7,5.2-1.1,7.7c-0.1,0-0.2,0-0.3,0
		c-0.4-2.6-0.8-5.2-1.2-7.9c-0.1,0-0.2,0-0.3,0c-0.7,4.1-1.3,8.2-2,12.5c-2.4-5-5.7-9-9.7-13.1c-1.9,9.8-4.8,18.8-10.6,26.7
		c1.3-4.3,1.9-8.7,2-13.2c0-1,0-2-0.2-3.1c-2.3,7.8-6.1,14.7-11.3,20.8c0.6-2.4,1.4-4.8,1.9-7.2c0.9-5.3,0.6-10.7,0.2-16.1
		c-0.2-3.4-0.7-6.7-1.2-10.1c-0.1,12.3-4.7,23.2-11.4,33.3c0.2-0.6,0.4-1.3,0.5-1.9c0.1-0.7,0.2-1.4,0.1-2.2
		c-0.5,1.4-1.1,2.7-1.6,4.1c-0.1,0-0.2,0-0.3,0c-0.3-2.8-0.7-5.5-1-8.3c0,0-0.1,0-0.1,0c0,2.8,0,5.7,0,8.5c-0.1,0-0.2,0.1-0.4,0.1
		c-0.7-1.9-1.4-3.8-2.1-5.7c-0.1,0-0.2,0.1-0.4,0.1c0.5,2.1,1,4.1,1.4,6.2c-6.7-10.2-10.5-21.4-11.6-33.4
		c-0.9,8.4-2.5,16.8-1.2,25.3c0.3,2.2,1,4.3,1.5,6.3c-4.3-3.4-8.9-12.3-10.6-20.5c0,1.9-0.1,3.8,0,5.7c0.1,2,0.3,4,0.7,5.9
		c0.3,1.9,0.9,3.8,1.4,6.2c-3.2-4.5-5.5-8.9-7-13.6c-1.5-4.7-2.6-9.6-3.9-14.3c-3.3,2.8-6.4,6.9-10.1,13.3
		c-0.4-3.8-0.7-7.6-1.1-11.4c-0.2,0-0.3-0.1-0.5-0.1c-0.5,1.9-1,3.8-1.5,5.7c-0.1,0-0.1,0-0.2,0c0-2.8,0-5.6,0-8.5
		c-0.1,0-0.3,0-0.4-0.1c-0.3,1.3-0.7,2.5-0.9,3.8c-0.3,1.3-0.4,2.6-0.6,3.9c-0.1,0-0.3,0-0.4,0c-0.5-5.7-0.9-11.3-1.4-17.4
		c-1.1,1.3-2,2.4-3.1,3.6c0.1-1.6,0.2-3,0.2-4.4c-0.1,0-0.2,0-0.3,0c-0.5,1.9-1,3.8-1.5,5.7c-0.1,0-0.2,0-0.4-0.1c0-0.9,0-1.8,0-2.7
		c-0.1,0-0.2,0-0.4-0.1c-0.3,1.6-0.6,3.1-0.9,4.7c-0.1,0-0.2,0-0.3,0c-0.1-0.4-0.2-0.8-0.2-1.3c-0.3-5.1-0.6-10.1-0.9-15.2
		c-0.1-1.3-0.6-2.2-1.4-3.1c-2.3-2.4-4.6-4.8-6.8-7.2c-0.9-0.9-1.6-2-2.1-3.3c0.9,0.4,1.8,0.8,2.7,1.3c1.2,0.7,2.3,1.7,4,1
		c0.6-0.2,1.6,0.6,2.3,1c1.2,0.7,2.3,1.4,3.7,1.6c1.2,0.2,2.3,1.2,3.5,1.9c-0.2-0.4-0.3-0.8-0.5-1.3c0.1-0.1,0.1-0.1,0.2-0.2
		c0.7,0.6,1.4,1.2,2.2,1.9c-0.1-0.8-0.2-1.3-0.3-2.2c0.7,0.5,1.3,0.8,2,1.3c0.4-1.1,1.2-1,2-0.5c0.7,0.5,1.3,1.2,2,1.9
		c0.1-0.6,0.2-1.1,0.3-2c3.3,1.7,5.9,0.1,8.6-1.3c6.4-3.2,12.8-6.3,19.2-9.4c0.4-0.2,0.9-0.4,1.6-0.3c-0.9,1.2-1.7,2.4-2.9,4.1
		c1.4-0.6,2.3-1,3.4-1.5c-0.5,1.2-0.9,2.4-1.4,3.5c0.1,0,0.2,0.1,0.3,0.1c0.9-1.4,1.9-2.9,2.8-4.3c0.2,0,0.3,0.1,0.5,0.1
		c-0.3,1.1-0.6,2.2-0.9,3.3c0.1,0,0.2,0.1,0.4,0.1c0.8-1.8,1.6-3.6,2.5-5.7c-0.1,2.6-0.3,4.8-0.4,7c0.1,0,0.2,0,0.4,0.1
		c0.7-1.9,1.3-3.8,2-5.8c0.1,0,0.2,0,0.3,0c0,2.6,0,5.1,0,7.7c0.1,0,0.2,0.1,0.4,0.1c0.6-1.9,1.1-3.9,1.8-6.1
		c0.7,3.4,1.3,6.5,1.9,9.7c0.1,0,0.3,0,0.4,0c0.4-1.8,0.8-3.7,1.2-5.9c0.1,1.2,0.2,2,0.3,2.9c0.1,0,0.1,0,0.2,0
		c0.1-0.6,0.2-1.1,0.4-2.1c0.8,2,1.4,3.7,2.1,5.4c0.1,0,0.1,0,0.2,0c0-2,0-4,0-5.9c0.1,0,0.2,0,0.3-0.1c0.5,2,1.1,4,1.6,5.9
		c0.1,0,0.1,0,0.2,0c0-3.1,0-6.2,0-9.2c0.1,0,0.2,0,0.3-0.1c0.4,0.9,0.7,1.9,1.3,3.2c0.3-1,0.4-1.5,0.6-2.2c0.7,1,1.4,2,2.3,3.1
		c0.7-2.8,0.3-5.2,0-7.8c0.9,1.9,1.9,3.8,2.8,5.7c0.1,0,0.2-0.1,0.4-0.1c-0.1-1.1-0.1-2.3-0.2-3.4c0.1-0.1,0.2-0.1,0.3-0.2
		c1.1,1.7,2.2,3.4,3.3,5.2c1.3-0.3,1-1.1,0.6-1.9c-0.9-1.8-1.9-3.5-2.8-5.3c1.9,1.9,3.7,3.7,5.6,5.5c0.1-0.1,0.2-0.1,0.3-0.2
		c-1-1.5-2-3-3-4.4c0.1-0.1,0.2-0.2,0.3-0.3c3.1,1.5,6.1,3,9.2,4.5c4.2,2.1,8.4,4.2,12.6,6.2c1.3,0.6,2.6,0.8,4,0.2
		c0.6-0.3,1.5,0.2,2.5,0.4c0.5-0.3,1.2-0.8,2.1-1.5c0.1,1,0.2,1.7,0.2,2.2c0.6-0.8,1.2-1.6,1.9-2.4c0.3,0.1,0.5,0.2,0.8,0.3
		c-0.3,1.3,0.4,1.7,1.3,1.9c1-0.7,2-1.5,3.2-2.4c0,0.5,0,0.9,0,1.4c4.1-2,8.1-4.1,12.1-6.1c0.1,0.1,0.2,0.3,0.3,0.4
		c-0.2,0.5-0.4,0.9-0.7,1.6c0.9-0.6,1.7-1.1,2.7-1.7c-0.2,1.3-0.9,2-1.5,2.7c-1.9,2.2-3.8,4.5-5.8,6.6c-1.4,1.6-2.2,3.3-2.4,5.5
		c-0.3,5-0.8,9.9-1.4,14.9c-0.7-2.8-1.4-5.6-2.1-8.4c-0.1,0-0.2,0-0.3,0.1C485.9,548.6,486.1,551,486.5,553.8z M427.3,462.2
		c-1.6-0.8-3.2-1.6-4.5-2.8c-6.2-5.4-13.4-7.8-21.4-7.9c-0.7,0-1.4-0.2-2.1-0.3c0-0.2-0.1-0.3-0.1-0.5c0.7-0.3,1.4-0.7,2.2-1
		c5.7-1.9,11.4-1.7,17.1,0.2c2.5,0.8,5,1.7,7.5,2.6c4,1.4,7.9,1.3,11.9,0.1c2.6-0.9,5.3-1.7,7.9-2.7c5.4-1.9,10.8-1.9,16.1,0.3
		c0.5,0.2,0.9,0.4,1.4,0.6c0,0.1,0,0.3,0,0.4c-2.1,0.2-4.2,0.4-6.3,0.6c-5.2,0.6-10,2.3-14.1,5.6c-1.9,1.5-3.9,2.9-5.9,4.3
		C433.8,463.9,430.6,463.9,427.3,462.2z M361.1,347.1c1.1,0.7,2.3,0.5,3.3-0.2c1.5-1,1.4-2.4,1-3.9c4.1-1,8.6,2.2,8.9,6.4
		c0.1,1.8-0.6,3.1-1.9,4.2c-6.4,5.5-17.7,2.8-20.8-5c-0.8-1.9-0.8-3.8-0.4-5.8c0.9,0.8,1.6,0.1,2.4-0.2c1.7-0.7,3.4-1.4,5.5-0.4
		C358.4,344.5,359.3,346,361.1,347.1z M235.9,280.8c0.1,0.2,0.2,0.3,0.3,0.5c5-2.8,10.1-5.6,15.1-8.4c-3.4,3.5-7.2,6.4-11.5,8.8
		c0.1,0.1,0.1,0.3,0.2,0.4c4.3-2,8.5-4,12.8-6.1c0.1,0.1,0.1,0.1,0.2,0.2c-3,2.2-5.9,4.5-8.9,6.6c-7.6,5.4-15.9,9.1-25.2,10.3
		c-3.4,0.4-6.9,0.6-10.3,0.5c-4.3,0-8.7-0.3-13.6-0.5c14.6-4.6,26.9-12.1,37.5-22.4c-6.8,1.6-13.2,4.3-19.7,6.7
		c10.9-9.7,22.6-18.1,36.6-23.8c-2.5,4-4.7,7.6-7,11.2c0.1,0.1,0.2,0.2,0.4,0.3c3.4-4.5,7.2-8.4,11.9-10.9
		C248.5,263.1,242.2,272,235.9,280.8z M237.1,230.4c-0.5,0.4-1,0.8-1.7,1.1c0.2-0.4,0.4-0.8,0.7-1.2c3.6-5,7.1-10.1,11-14.9
		c9.6-11.9,21.7-19.8,36.6-23.4c0.2,0,0.4-0.1,0.6-0.3c-3.1,0-6.2,0.7-9.2,1.4c-8.9,2.1-17,6.1-24.6,10.9c-0.7,0.4-1.4,0.8-2.2,1.2
		c-0.1-0.2-0.2-0.4-0.4-0.6c1.2-1.1,2.5-2.3,3.7-3.3c8.5-7.3,17.2-14.3,27.4-19.1c6-2.9,12.2-5,18.9-5.7c6.8-0.7,13.2,0.3,19.2,3.6
		c5.5,3,10.3,7.1,14.7,11.5c7.6,7.7,14,16.2,18.9,25.9c0.5,1,1,2.1,1.4,3.2c0.2,0.4,0.1,0.9,0.1,1.4c-0.1,0.1-0.3,0.1-0.4,0.2
		c-1.1-1.6-2.2-3.3-3.5-5.2c0,0.8,0,1.1,0,1.4c-3.7-2-6-5.4-8.7-8.5c-3.3-3.8-6.8-7.5-10.3-11.2c-0.6-0.7-1.4-1.3-2.3-1.7
		c6,7.4,11.9,14.7,16.6,23.1c-0.8,0.4-1.4,0.8-2.1,1.2c-1.6-2.5-3.3-5-4.9-7.5c-0.1,0-0.2,0.1-0.3,0.1c0.1,0.4,0.1,0.9,0.3,1.3
		c0.8,2,1.7,3.9,2.6,5.8c0.2,0.4,0.4,1.1,0.3,1.2c-1.4,1-0.4,2-0.1,3c0.6,2.8,1.4,5.6,1.7,8.5c-1.9-3.1-3.7-6.1-5.6-9.2
		c-3.5-5.6-7.2-11.1-12.5-15.3c-6-4.8-12.8-7.3-20.4-8.1c-10.2-1.1-19.6,1.6-28.8,5.5C260,212.6,248,220.7,237.1,230.4z M271,361.5
		c1.8-0.6,3.7-1.1,5.5-1.7c0.1,0.1,0.1,0.1,0.2,0.2c-0.5,0.5-1,1.1-1.5,1.6c-9.7,9.8-20.8,17.6-32.9,24.2c-9,4.9-18.1,9.8-27,14.9
		c-15.2,8.7-28.4,19.8-39.4,33.5c-0.1,0.1-0.3,0.2-0.8,0.6c9.1-18.1,21-33.5,35.8-46.6c-3.2,1.7-6,3.9-8.8,6c-3,2.3-5.9,4.6-8.7,7.1
		c-2.8,2.4-5.4,4.9-7.7,7c0.8-1.4,2-3.5,3.2-5.5c-2.1,1.6-3.2,3.8-4.5,6c0.7-3.8,1.9-7.5,3.4-11c5.8-13.1,15.9-21.7,28.9-27
		c6.7-2.7,13.7-4.9,20.5-7.2c17.8-6,33.1-16,46.1-29.5c0.4-0.4,0.8-0.9,1.2-1.3c0.1-0.1,0.2-0.2,0.6-0.4c-0.4,1.9,1.5,2.2,1.9,3.7
		C282.6,344.9,278.2,354,271,361.5z M288.5,295.9c-3.1-2-5.7-4.6-8-7.5c-7.2-9.1-12.8-19-15.3-30.4c-2-9.2-2-18.4,1.5-27.3
		c4.2-10.6,11.8-17.5,23.1-19.6c10.8-2,20.5,0.7,29.2,7.4c3.4,2.6,6.3,5.7,8.8,9.3c-0.3-0.3-0.7-0.5-1-0.8
		c-5.4-4.8-11.5-8.5-18.2-10.9c-8.8-3.2-17.6-3.2-26.1,1c-9.5,4.7-15.2,16-13.7,26.5c1.6,10.3,6.2,19.2,12.8,27.1
		c4.6,5.5,10,9.9,16.8,12.4c1.9,0.7,3.9,0.9,5.9,0.6c0.8-0.1,1.6-0.5,2.8-0.9c-6.2-5.3-11-11.4-15.5-17.6c6.5,1.1,13,2.1,19.4,3.2
		c-5.4-4.4-8.2-10.3-11.1-16.3c-4.8-9.7-12.5-15.9-23.3-18.4c3.4-2.7,7-4.2,11.2-4.7c5.6-0.6,11.1,0,16.7,0.7
		c-5.2-2.5-10.8-3.9-17.1-4.4c3.1-2.1,6-3.2,9.1-3.7c10.2-1.7,19.4,0.6,27.5,7.2c5,4.1,9.2,8.9,12.4,14.5c1.4,2.4,1.4,3-0.5,5.1
		c-3.6,3.9-8.1,6.1-13.4,6.4c-6.9,0.4-13.2-1.7-19.2-4.7c-0.6-0.3-1.2-0.7-1.9-0.9c5.7,5.6,11,11.6,17.5,16.4
		c2.5,1.8,5.2,3.3,8.3,4.2c-1.9-0.1-3.9-0.2-6.2-0.3c1.1,0.7,1.9,1.2,3.2,1.9c-1.1-0.1-1.8-0.1-2.5-0.2c0,0.1-0.1,0.3-0.1,0.4
		c1,0.4,2,0.7,3.1,1.1c-2.8,3.1-6.6,4.1-10.5,4.9c3.8,0,7.7,0,11.6,0c-2.6,2-5.2,4.1-8.7,4.8c3.2,1.2,6.3,1,9.5-0.2
		c-3.2,3.1-6.8,5.2-11.3,5.6c-11.4,1.1-22.1-1.1-31.7-7.5c-0.2-0.1-0.4-0.2-0.8,0c0.9,0.8,1.7,1.6,2.6,2.3c0.9,0.7,1.9,1.4,2.8,2.1
		c1,0.7,2.1,1.3,3.2,1.9c2.3,0.6,4.6,1.3,6.9,1.9c1.3,0.3,2.5,0.7,3.8,1.1c-3.8,0.1-7.3-1.3-10.8-2.6c4.1,3.1,8.3,5.7,13.4,6.8
		c0.3,0.1,0.7,0.2,1.1,0.7c-1.2,0.3-2.4,0.5-4,0.9c1.3,0.3,2.4,0.6,3.4,0.8c0,0.1,0,0.2,0.1,0.3c-2.2,0.3-4.4,0.7-7,1.1
		c2,0.3,3.8,0.5,5.4,0.7C299.6,299.7,293.1,298.8,288.5,295.9z M274.1,651.8c-12.1-18-21.7-37.3-28.6-57.9c-3.1-9.3-5-18.9-5.9-28.6
		c-0.9-10-0.9-20,0.3-29.9c1.3-11.6,4.1-22.8,7.9-33.8c5.3-15.4,11.8-30.2,21.1-43.7c4.3-6.2,9.2-12,15.1-17.3
		c0.6,0.8,1.1,1.5,1.7,2.3c-0.6,0.9-1.4,2.1-2.2,3.3c0.1,0.1,0.1,0.2,0.2,0.3c0.4-0.2,0.8-0.4,1.1-0.7c1.5-1.6,3.1-3.2,4.6-4.8
		c0.7-0.8,1.4-1.1,2.2,0.1c-1.3,1.8-2.7,3.7-4,5.5c0.1,0.1,0.3,0.2,0.4,0.3c2-1.8,3.9-3.6,5.7-5.3c1.1,0.5,2,1,3.2,1.5
		c-1.2,1.7-2.6,3.6-3.9,5.5c0.1,0.1,0.2,0.2,0.2,0.2c2.4-2.3,4.9-4.6,7.2-6.8c1,0.3,1.8,0.6,2.7,0.9c-9.8,10.6-17.6,22.5-23.4,35.6
		c-0.1,0.3-0.1,0.7-0.1,1.1c5.6-9,12.3-16.9,22.1-22c-1.8,2.4-3.5,4.5-5.1,6.7c0.1,0.1,0.3,0.3,0.4,0.4c2.9-3.9,6.5-6.8,11.1-9.3
		c-1.6,1.8-2.8,3.2-4.1,4.6c-19.8,21.5-31.4,47.1-37.3,75.5c-2.4,11.5-3.2,23.1-2.7,34.9c0.5,12,2.8,23.7,5.8,35.3
		c1.1,4.3,2.4,8.6,3.6,12.9c0.1,0.3,0.1,0.6,0,0.9c-8.2-17.2-13.1-35.5-17-54.1c1.5,16.4,4.4,32.5,7.8,48.6
		c-1.8-3.3-6.9-22.2-10.9-39.4c0,0.5-0.1,1,0,1.4c1.4,8.2,2.7,16.4,4.2,24.5c3.1,16.6,8.5,32.5,15.9,47.7c1.3,2.6,2.6,5.2,3.7,8
		C276.3,654.9,275.2,653.4,274.1,651.8z M311.8,576.3c-2,12.5-3.7,25.1-4.3,37.8c-0.4,8.3-0.2,16.6,0.6,24.9c0.2,2,0.6,4.1,0.5,6.2
		c-1.5-3.3-3.1-6.5-4.5-9.8c-4.7-11.1-7.8-22.6-9.7-34.4c-1.8-11.1-2.9-22.3-2.6-33.6c0.3-14,2.1-27.8,7-41.1
		c0.7-1.9,1.5-3.8,2.3-5.9c-2.5,2.6-7.8,14.2-10.8,23.5c-2.7,8.2-4.4,16.7-5.9,25.2c-0.3-2.8-0.8-5.7-1-8.5
		c-0.6-7.1-0.9-14.2-0.6-21.4c0.9-19.5,6.8-37.3,18.4-53.1c1.8-2.4,3.7-4.7,5.6-7.1c3.1,1.7,0.5,3.6,0.3,5.3
		c1.1-0.3,2.1-0.5,3.5-0.9c-1.1,2.3-2,4.3-3,6.3c0.2,0.2,0.4,0.3,0.5,0.5c0.2-0.5,0.3-1.1,0.4-1.4c1.2,0.2,2,0.3,3.1,0.5
		c-4.1,7.2-7.7,14.2-9.9,21.9c4.5-7.4,9.4-14.6,15.4-20.9c-0.3,0.9-0.7,1.7-1,2.6c2.2,1.3,4.6,0.7,6.9,1c-0.1,0.5-0.2,1-0.4,1.9
		c1-0.9,1.7-1.5,2.5-2.1c0.4,0.8,0.8,1.7,1.3,2.9c-9.8,10.6-17.7,22.7-21.7,37.1c3.8-7.4,8.4-14.3,14.3-20.2c2.1-2.1,4.3-4,6.7-5.8
		c-1.5,2.8-3,5.5-4.5,8.3c0.2,0.1,0.4,0.3,0.5,0.4c1.1-2.4,2.6-4.4,5.2-5.8c-0.2,0.8-0.3,1.2-0.5,1.5c-4.6,9.8-7.3,20.1-9.1,30.7
		C315.5,554,313.6,565.2,311.8,576.3z M378.2,681.7c-13.4-12.8-22.7-28.2-28.9-45.5c-3.3-9.3-5.6-18.8-7-28.6
		c-0.4-2.7-0.6-5.4-0.8-8.1c-4.2,27.6-0.6,54.3,8.8,80.5c-0.4-0.5-0.9-1.1-1.3-1.6c-12.5-17.3-20.6-36.5-24.1-57.6
		c-2.1-12.9-3-25.8-2.5-38.9c0.6-15.9,3-31.6,8.7-46.5c1.1-3,2.6-5.9,4-8.9c0.7,0.2,1.1,0.4,1.7,0.6c-3.3,9.5-6.2,18.9-6.7,28.9
		c0-2.1,1.1-3.4,2.6-4.7c1.3-1.1,2.1-2.7,3.1-4c0.9,0.3,1.7,0.7,2.7,1c1.4,0.4,2.3,1.6,2,2.8c-2.7,11.2-4.7,22.6-6.3,34
		c-1,6.7-1.7,13.4-2.5,20.1c-0.1,0.7,0,1.4,0.1,2.2c4-18.5,7.7-37.1,18-53.5c0.8,0.2,1.5,0.4,2.2,0.7c-0.7,4.9-1.4,10-2.2,15
		c0.2,0,0.3,0.1,0.5,0.1c2.1-4.6,4.3-9.3,6.4-13.9c1.5-0.1,2.8-0.2,4.1-0.4c0.8,2,0.5,3.7,0.1,5.5c-2,9.1-3.6,18.3-4.2,27.6
		c-0.7,10.7-0.3,21.3,0.9,31.9c1.8,15,5.5,29.4,11.6,43.2c2.8,6.4,6,12.6,10.2,18.2c0.2,0.2,0.3,0.5,0.2,0.9
		C379,682.4,378.6,682,378.2,681.7z M454,717.2c-1.5,3.1-2.8,6.3-4.5,9.3c3.2-12.3,6.4-24.7,9.5-37c3.1-12.4,5.9-25,8.8-37.4
		c-0.2,0-0.4-0.1-0.6-0.1c-1,3.5-1.9,6.9-3,10.4c-5.4,17.3-10.9,34.6-16.2,51.9c-4.3,14-8.4,28.1-12.4,42.2
		c-1.5,5.4-2.5,11-3.9,16.5c0-7.7,0-15.3,0-23c-0.2,0-0.5,0-0.7,0c0,8.4,0,16.8,0,25.2c-0.1,0-0.3,0-0.4,0c-1-4.8-1.9-9.7-3-14.5
		c-3-13.5-6.9-26.9-11-40.1c-5.6-18.1-11.2-36.2-16.8-54.2c-1.8-5.8-3.5-11.6-5.4-17.4c5.9,26.3,11.9,52.5,19,78.5
		c-1.3-2.9-2.5-5.9-4-8.8c-6.6-13.4-13.3-26.7-19.9-40.1c-5.7-11.6-10.8-23.5-14-36.1c-1.8-7-2.9-14.1-3.7-21.2
		c-0.3-2.5-0.3-5-0.5-7.5c0.1-0.1,0.2-0.1,0.3-0.2c0.1,0.5,0.2,1.1,0.4,1.8c0.4-0.2,0.7-0.2,0.8-0.4c1.8-2,4.2-1.4,6.4-1.7
		c0.3,0,0.8,0.6,1,1c0.7,1.1,1.2,2.3,2.1,3.8c0-2.3,0-4.2,0-6.2c1.4,8.9,3.4,17.7,6.5,26.2c0.4-9.8,1.3-19.4,5.7-28.8
		c0.3,1.1,0.6,1.7,0.6,2.4c0.4,3.8,3.1,5.2,6.2,6.2c2,0.6,4.1,1,6.2,1.4c0.5,0.1,1.1-0.1,1.4-0.2c3.7,14.6,7.4,29.3,11.2,44
		c-1.8-17.5-4-35-2.1-52.7c1-0.5,1.2,0.2,1.4,1c0.9,3.7,1.8,7.4,2.6,11.1c1.8,8.2,3.5,16.4,5.4,24.5c0.8,3.6,2.1,7,3.4,10.5
		c3.7-7.5,5.8-15.4,7.8-23.4c2-8,3.9-16.1,6.1-24.3c0.2,0.8,0.4,1.5,0.5,2.3c0.9,12.1,0.7,24.2-1,36.3c-0.7,4.9-1.2,9.9-1.8,14.9
		c-0.1,0.6,0,1.3,0,1.9c4.2-16.4,8.3-32.8,12.4-49c0.6,0.1,1.2,0.5,1.7,0.3c3-1.1,5.9-2.3,8.8-3.4c0.8-0.3,1.7-0.4,2.9-0.6
		c0.1-0.3,0.3-1.1,0.7-2.2c2.4,4.4,3.7,8.8,4.1,13.4c0.5,4.6,0.5,9.2,0.8,13.6c1.5-2.8,5.2-18.1,7-28.5c0.2,3.2,0.4,6.4,0.6,9.7
		c1.9,1.3,4,1.7,6.4,1.6c0.8,0,1.6,0.3,2.6,0.4c0.1-0.2,0.3-0.7,0.5-1.2c0.1,0.1,0.3,0.2,0.3,0.2c-0.3,2.9-0.6,5.8-1.1,8.7
		c-2.9,18.3-9.5,35.4-17.7,51.9C466.3,692.5,460.1,704.9,454,717.2z M529.3,650.1c-4.4,10.6-10.1,20.5-17,29.8
		c9.7-26.3,13-53.3,9-81.3c-3.3,32.5-14.9,60.9-38.1,84.1c0-0.2,0-0.4,0.1-0.5c8.4-11.7,13.5-24.8,17.4-38.5c2.5-9.1,4-18.3,5-27.7
		c0.7-6.7,1-13.3,0.8-20c-0.2-8.8-1.2-17.4-2.8-26c-1-5.2-2.1-10.3-3.2-15.5c-0.2-1,0-1.6,0.8-2.3c0.6-0.5,1.1-1.3,1.7-2
		c4.1,6.1,7,12.9,9.5,20c0.5-4.4-0.7-8.7-1.1-13.4c0.9,0,1.7,0.1,2.5,0.1c-0.1-0.7-0.3-1.4-0.4-2.1c0.1-0.1,0.3-0.1,0.4-0.2
		c1.3,2.3,2.7,4.6,3.9,7c3.3,6.7,5.7,13.9,7.5,21.1c2.1,8.2,3.9,16.6,5.8,25c-1.7-20.7-4.5-41.1-10.1-61.5c1,1.3,1.7,0.4,2.4,0
		c0.7-0.4,1.4-0.8,2.3-1.3c2.7,5.1,4,10.6,5.5,15.9c0.1-1.3-0.3-2.7,1.5-3.2c0.1,0.7,0.1,1.4,0.2,2.3c0.4-2.5-0.4-10.9-1.5-15
		c-1.3-4.8-2.8-9.5-4.2-14.4c0.4,0.2,0.7,0.3,1.1,0.5c-0.2-1.3-1.2-2.5-0.5-4.2c0.8,1.5,1.4,2.7,2,4c3.6,7.9,6,16.2,7.5,24.8
		c2.1,11.8,3.1,23.8,3,35.7C540,611.5,537.1,631.2,529.3,650.1z M578.6,567.6c-0.1,0.7-0.3,1.4-0.6,2.5c-2.4-18-10.3-41.2-17-50.2
		c1.1,3,2.2,6,3.3,9c3.1,8.5,4.7,17.2,5.5,26.2c0.8,8.7,0.8,17.5,0.3,26.2c-1.4,22.3-6.3,43.7-16.2,63.8c-0.1,0.1-0.2,0.2-0.3,0.4
		c0.3-2.9,0.7-5.7,0.8-8.5c0.3-5.3,0.7-10.6,0.5-15.9c-0.1-6.9-0.6-13.8-1.2-20.7c-0.5-5.9-1.4-11.8-2.3-17.7
		c-1.8-11.8-3.7-23.6-5.6-35.5c-1.6-9.9-3.3-19.8-7.3-29.2c-0.1-0.3-0.3-0.6-0.3-0.8c0-0.4,0.1-1.1,0.4-1.3c0.3-0.1,1.1,0.1,1.3,0.4
		c0.7,1,1.1,2,1.7,3.1c0.1,0.2,0.3,0.4,0.6,0.6c-1.2-4.8-3.5-9-6.1-13c9.7,7.2,17.3,16.1,22.3,27.1c-3.8-13.6-10.8-25.3-20.5-35.6
		c2.1-0.3,3.7-2.1,5.7-0.5c0.9-1.1,1.7-2.1,2.5-3.2c0.4,0.2,0.8,0.5,1.4,0.9c-0.4-1.3-0.7-2.3-1-3.3c0.2-0.1,0.3-0.1,0.5-0.2
		c4.8,5.4,8.7,11.5,12.6,17.6c-2.3-7.1-5.4-13.9-8.6-20.6c0.6,0.5,1.2,1,2,1.7c-0.5-1.4-0.9-2.6-1.3-3.7c0.2-0.1,0.3-0.2,0.5-0.2
		c0.8,1.2,1.7,2.3,2.7,3.8c0.1-2-2.3-3.7,0-5.4c0.6,0.7,1.2,1.4,1.7,2.1c0.1-0.1,0.2-0.1,0.3-0.2c-0.2-0.6-0.4-1.2-0.7-1.9
		c0.8-0.7,1.6-1.5,2.7-2.5c1.7,2.4,3.4,4.5,5,6.8c6.8,10,11.5,20.9,13.8,32.9c1.5,7.7,2.3,15.5,2.2,23.4
		C580.1,553.3,579.5,560.5,578.6,567.6z M573.3,445.1c0.3-0.7,0.7-1.3,1.1-2.2c1.4,1.2,2.7,2.3,4,3.4c0.1-0.1,0.2-0.1,0.3-0.2
		c-0.2-0.6-0.4-1.1-0.7-1.9c0.7-0.8,1.4-1.6,2.3-2.6c3.9,3.8,7.3,7.8,10.5,12c11.6,15.2,19.5,32.2,25.3,50.3
		c3.3,10.2,5.8,20.5,7,31.1c0.9,7.7,1.1,15.5,0.8,23.3c-0.7,20.1-7,38.7-15.3,56.8c-6.3,13.7-13.7,26.8-22.1,39.3
		c-0.2,0.4-0.5,0.7-0.9,1c2.7-6,5.6-11.9,8.1-18c2.5-6.1,4.9-12.3,6.9-18.6c2-6.4,3.6-12.8,5-19.4c1.4-6.4,2.2-13,3.3-19.4
		c-0.2,0-0.4-0.1-0.5-0.1c-2,11.2-5.4,22.1-9.2,32.8c3.3-16.1,6.4-32.2,7.3-48.7c-3.3,19-8.6,37.3-17.2,54.7c0.6-2,1.1-4.1,1.7-6.1
		c2.8-10.1,5.2-20.3,6.6-30.8c1.3-9.8,1.6-19.6,0.7-29.5c-2.9-30.4-13.5-57.9-31.6-82.5c-2.6-3.6-5.5-6.9-8.4-10.3
		c-0.8-1-1.8-2-2.4-3.2c1.4,1.2,2.9,2.3,4.3,3.5c1.4,1.2,2.7,2.5,4.2,3.6c-1.3-2.5-3.5-4.2-5.3-6.8c11.7,5.4,19.5,14.4,25.7,25
		c-4-11.7-11.1-21.5-18.8-31.1c0.7-0.5,1.3-1,1.9-1.6c0.8,0.9,1.6,1.7,2.3,2.6c0.1-0.1,0.2-0.2,0.4-0.3c-1.3-2.1-2.7-4.1-4-6.2
		c-0.5-0.7-1.6-1.4-0.6-2.4c1.1-1.1,1.6,0.3,2.3,0.8c0.4,0.3,0.7,0.7,1.3,1.2c0-0.7-0.1-1.1-0.1-1.9c1.8,1.7,3.3,3.1,4.8,4.6
		c0.1-0.1,0.2-0.2,0.4-0.3C574.2,446.4,573.8,445.8,573.3,445.1z M615.9,359.9c6.1,2.7,12.5,4.7,18.8,6.8c8.2,2.7,16.1,6,23.1,11.1
		c8.8,6.4,14.7,14.9,18.4,25c0.4,1.2,0.8,2.4,1.2,3.5c0.1,0.2,0,0.4,0.1,0.8c-1.7-2.4-3.3-4.7-4.8-7c-0.1,0.1-0.3,0.2-0.4,0.3
		c1.6,2.9,3.3,5.8,4.9,8.6c0,0-0.1,0.1-0.1,0.1c-2.6-2.7-5-5.5-7.8-8c-2.9-2.6-6-5-9-7.4c-3-2.3-6.1-4.6-9.2-6.7
		c4.6,4.7,9.3,9.4,13.9,14.2c4.6,4.9,8.7,10.1,12.3,15.8c3.5,5.6,6.9,11.4,10.4,17.1c-0.1,0.1-0.2,0.1-0.3,0.2
		c-3.8-4.2-7.6-8.4-11.5-12.4c-8.2-8.3-17.6-14.9-27.6-20.7c-9.4-5.5-19.1-10.7-28.7-15.8c-10.4-5.6-20.2-12-28.8-20.1
		c-1.8-1.7-3.5-3.5-5.2-5.3c0.1-0.1,0.2-0.3,0.2-0.4c2,0.7,4.1,1.3,6.1,2c-7-7.8-11.5-16.9-16.4-26.1c1.3-0.1,2.3-1.3,3.5,0.3
		c0.1-0.1,0.2-0.3,0.2-0.4c-0.7-1-1.3-1.9-2-2.9c0.1-0.1,0.2-0.2,0.3-0.3c0.8,0.8,1.7,1.7,2.5,2.5
		C590.4,345.3,602.3,353.9,615.9,359.9z M594.2,266.8c-3.4,8.2-7.6,15.9-13.3,22.7c-3.6,4.4-7.9,7.9-13.7,9
		c-2.4,0.4-4.8,0.5-7.3,0.4c2.1-0.6,4.3-1.2,6.4-1.9c-3.5-0.2-6.9-0.3-10-2.6c9-1.8,15.3-7.9,22.1-13.3c-0.4,0.2-0.8,0.3-1.2,0.5
		c-8.5,4.8-17.7,7.1-27.5,6.5c-3.7-0.2-7.3-1.2-10.4-3.1c-1.7-1.1-3.3-2.4-4.9-3.4c3,0.4,6,0.8,9,1.2c0.5,0.1,1-0.1,1.5-0.4
		c-3.1-1.3-5.9-3.1-8.6-5.7c3.8,0.6,7.1,1.3,11,0.6c-5.7-1.6-9.8-3.8-12.2-6.6c1.9,0,3.6,1.5,5.5,0.1c-1.3-0.4-2.4-0.8-3.8-1.2
		c10.3-4.5,17.3-12.7,24.8-20.5c-0.4,0.2-0.8,0.3-1.2,0.5c-6.4,3.4-13.1,5.6-20.4,5.2c-5.3-0.3-9.7-2.5-13.4-6.3
		c-1.1-1.2-1.7-2.4-0.8-4.1c5.4-10.3,13.2-18.1,24.3-21.9c7.9-2.7,15.8-1.9,23.3,1.8c0.4,0.2,0.7,0.5,1.3,0.9
		c-6.5,0.5-12.3,1.8-18.1,4.7c3.4-0.3,6.5-0.8,9.5-0.9c3.2-0.1,6.5,0,9.7,0.1c4,0.2,7.2,2.2,10.6,4.7c-0.6,0.2-1,0.3-1.4,0.4
		c-8.5,1.7-14.6,6.9-19.4,13.9c-1.6,2.3-2.8,5-4.1,7.5c-2.4,4.8-5.3,9.2-9.7,12.4c-0.1,0.1-0.1,0.3-0.3,0.6
		c6.4-1.2,12.6-2.3,19.1-3.5c-4.5,6.5-9.2,12.8-15.8,17.7c2.4,1.5,4.8,1.4,7.1,0.7c5.4-1.4,10-4.2,14.1-7.8
		c9.4-8.5,15-19.2,17.1-31.6c2.4-14.1-7.1-27-21.1-29.6c-8.5-1.5-16.3,0.1-23.9,4c-4.4,2.3-8.6,5-12.4,8.3c0-0.3-0.1-0.5,0-0.5
		c5.7-6.8,12.3-12.5,21.2-14.6c12.6-2.9,24-0.6,33,9.3c4.5,5,6.9,11,7.9,17.6C599.6,248.4,598,257.8,594.2,266.8z M592.8,208.4
		c-6.7-3.2-13.6-5.8-21-6.8c-16.5-2.3-30,2.5-40,16.2c-2.4,3.3-4.4,7-6.5,10.5c-0.3,0.6-0.7,1.1-1.2,1.9c-0.5-2-1.4-3.6-0.6-5.7
		c0.7-2.1,0.7-4.5,1-6.9c-0.6-0.2-1.1-0.4-1.9-0.6c4.2-7.7,9.1-14.7,15.1-21.1c-3.1,1.1-9,7.6-17.8,19.5c-0.7-0.3-1.4-1-2-0.8
		c-0.7,0.1-1.3,0.9-1.8,1.5c-0.7,0.8-1.3,1.8-2,2.7c-1.6,2.2-3.2,4.3-5,6.4c0.1-0.4,0.2-0.9,0.3-1.3c4.3-11.4,10.6-21.4,19.1-30.1
		c4.6-4.7,9.4-9.3,15.1-12.8c6.9-4.2,14.3-5.5,22.2-4.5c11.8,1.5,22,6.7,31.4,13.5c5.4,3.9,10.3,8.5,15.5,12.8c0.5,0.5,1,1,1.6,1.6
		c-0.8,0.7-1.3,0.1-1.9-0.2c-3-1.7-6-3.5-9-5.2c-6.9-3.8-14.3-6-22-7.3c-0.6-0.1-1.3-0.1-2-0.1c5.1,1.8,10.2,3.6,15,6.1
		c10.8,5.7,19.2,13.9,26.2,23.7c2.5,3.5,4.9,7,7.1,10.7c-0.2-0.1-0.4-0.2-0.6-0.4C617,222.3,605.5,214.4,592.8,208.4z"/>
	<path d="M472.5,474.4c4.2,0.6,8.3,0.5,12.5,0c4.9-0.6,9.7-1.6,14.1-4c4.8-2.7,8-6.6,8.9-12.2c0.6-3.9-0.6-9.5-2.8-12.1
		c0,0.1-0.1,0.1-0.1,0.2c0.1,0.3,0.2,0.5,0.3,0.8c2,6,0.7,11.3-3.6,15.8c-3.2,3.3-7,5.5-11.3,7.1c-6.6,2.5-13.4,3.8-20.5,3.9
		C470.8,474.1,471.6,474.3,472.5,474.4z"/>
	<path d="M362.7,464.6c-4-3.2-6.2-7.4-6-12.6c0.1-1.9,0.5-3.9,0.7-5.8c-0.1,0-0.2-0.1-0.3-0.1c-0.5,1.4-1.2,2.8-1.6,4.3
		c-1.7,6.7-0.5,12.7,4.9,17.4c1.6,1.4,3.6,2.6,5.6,3.5c7.8,3.5,16,3.8,24.4,3.2c0.2,0,0.4-0.3,0.5-0.3c-3.3-0.4-6.5-0.7-9.6-1.3
		C374.5,471.4,368.2,469,362.7,464.6z"/>
	<path d="M428.5,329.1c-1.8-2.2-3.4-4.6-5.1-6.9c2.7,8.1,5.4,16.2,8.1,24.2c2.6-7.8,5.2-15.6,7.9-23.5c-1.7,2-3.1,4.1-4.7,6.1
		C432.1,332.2,431.1,332.3,428.5,329.1z"/>
	<path d="M442.3,330.5c2.9-1,3.1-2.1,1.9-6.6C443.5,326.3,442.9,328.4,442.3,330.5z"/>
</g>
</svg>
